<?xml version="1.0" encoding="utf-8"?>
<!-- Generator: Adobe Illustrator 16.0.0, SVG Export Plug-In . SVG Version: 6.00 Build 0)  -->
<!DOCTYPE svg PUBLIC "-//W3C//DTD SVG 1.1//EN" "http://www.w3.org/Graphics/SVG/1.1/DTD/svg11.dtd">
<svg version="1.1" id="Layer_1" xmlns="http://www.w3.org/2000/svg" xmlns:xlink="http://www.w3.org/1999/xlink" x="0px" y="0px"
	 width="221.8px" height="28px" viewBox="0 0 221.8 28" enable-background="new 0 0 221.8 28" xml:space="preserve">
<g>
	<g>
		
			<linearGradient id="SVGID_1_" gradientUnits="userSpaceOnUse" x1="-4460.2529" y1="2198.585" x2="-4499.5186" y2="2209.1797" gradientTransform="matrix(-1 0 0 -1 -4459.7529 2225.3359)">
			<stop  offset="0" style="stop-color:#2672A3"/>
			<stop  offset="0.37" style="stop-color:#267EC8"/>
			<stop  offset="1" style="stop-color:#1FA3DD"/>
		</linearGradient>
		<path fill="url(#SVGID_1_)" d="M31.523,27.898l0.01-0.005c0.08,0.003,0.161,0.005,0.243,0.005c2.452,0,4.543-1.538,5.364-3.7
			l3.531-8.478H5.092L0,27.898H31.523z"/>
	</g>
	<g>
		<linearGradient id="SVGID_2_" gradientUnits="userSpaceOnUse" x1="46.5913" y1="1.3071" x2="7.3259" y2="11.9018">
			<stop  offset="0" style="stop-color:#E41631"/>
			<stop  offset="0.63" style="stop-color:#E30921"/>
			<stop  offset="1" style="stop-color:#C11726"/>
		</linearGradient>
		<path fill="url(#SVGID_2_)" d="M15.57,0.16l-0.01,0.005c-0.08-0.003-0.161-0.005-0.242-0.005c-2.452,0-4.543,1.538-5.365,3.7
			l-3.531,8.478H42L47.092,0.16H15.57z"/>
	</g>
</g>
<path fill="#575756" d="M99.394,6.706h-3.192V0h-4.81v6.706h-3.156v4.275h3.156v16.417h4.81V10.981h3.192V6.706z M109.521,6.089
	c-2.809,0-5.504,1.156-7.582,3.238c-2.038,2.041-3.118,4.738-3.118,7.628c0,2.928,1.08,5.55,3.042,7.67
	c2.115,2.233,4.654,3.312,7.734,3.312c3.079,0,5.732-1.079,7.812-3.237c2.076-2.119,3.076-4.741,3.076-7.861
	c0-2.852-1.231-5.702-3.386-7.784C115.024,7.091,112.521,6.089,109.521,6.089z M109.635,23.16c-3.539,0-5.848-2.35-5.848-6.244
	c0-3.584,2.384-6.088,5.848-6.088c3.311,0,5.849,2.428,5.849,5.973C115.484,20.77,113.138,23.16,109.635,23.16z M53.512,0.15
	L42.026,27.787h5.632L50.7,20.42l9.885,0.003l2.848,7.364h5.633L57.503,0.15H53.512z M52.404,15.648l3.048-8.292h0.074l3.18,8.292
	H52.404z M82.035,15.684c0,5.008-1.001,7.592-4.501,7.592c-3.54,0-4.272-2.391-4.272-7.284V6.706h-4.849v11.984
	c0,6.011,2.925,9.248,8.042,9.248c2.348,0,4.116-0.886,5.541-2.775v2.235h4.772V6.706h-4.734V15.684z M199.795,6.089
	c-2.849,0-5.58,1.233-7.695,3.467c-1.925,2.043-2.926,4.624-2.926,7.515c0,2.772,1.115,5.587,3.08,7.629
	c2.078,2.158,4.692,3.237,7.735,3.237c4.579,0,8.232-2.58,10.002-7.127h-5.195c-0.999,1.655-2.809,2.58-4.924,2.58
	c-3.271,0-5.426-1.85-5.735-4.816h16.548c0-0.347,0.037-0.695,0.037-1.041c0-2.736-0.576-4.932-1.96-6.782
	C206.606,7.783,203.375,6.089,199.795,6.089z M194.292,14.759c0.731-2.582,2.964-4.239,5.504-4.239c2.924,0,4.927,1.463,5.735,4.239
	H194.292z M216.25,9.093V6.706h-4.503v20.692h4.81V16.839c0-3.852,0.885-5.627,5.006-5.934v-4.51
	C219.33,6.395,217.674,7.282,216.25,9.093z M183.307,8.363c-1.845-1.542-3.848-2.159-6.425-2.159c-2.693,0-5.196,0.925-7.12,2.735
	c-2.271,2.081-3.54,5.009-3.54,8.055c0,3.313,1.385,6.358,3.886,8.515c1.808,1.581,4.157,2.429,6.774,2.429
	c2.425,0,4.502-0.693,6.425-2.236v1.696h4.733V0h-4.733V8.363z M177.458,23.16c-3.655,0-6.232-2.661-6.232-6.089
	c0-3.314,2.655-6.127,6.001-6.127c3.35,0,5.888,2.658,5.888,6.205C183.114,20.576,180.536,23.16,177.458,23.16z M159.809,9.211
	c-1.347-2.044-3.501-3.047-6.503-3.047c-3.117,0-5.578,1.002-7.659,3.199c-1.921,2.004-2.961,4.701-2.961,7.592
	c0,6.166,4.578,10.903,10.735,10.903c3.193,0,5.271-0.923,6.427-3.004v2.543h4.655V6.706h-4.694V9.211z M153.577,23.005
	c-3.233,0-5.967-2.543-5.967-6.129c0-3.35,2.695-5.932,5.89-5.932c3.04,0,5.81,2.698,5.81,6.166
	C159.309,20.308,156.579,23.005,153.577,23.005z M134.806,0h-18.884v4.817h6.767v22.581h5.35V4.817h6.768V0z M142.686,6.395
	c-2.232,0-3.889,0.887-5.312,2.698V6.706h-4.501v20.692h4.81V16.839c0-3.852,0.886-5.627,5.003-5.934V6.395z"/>
</svg>
